<?xml version="1.0" encoding="utf-8"?>
<!-- Generator: Adobe Illustrator 22.0.1, SVG Export Plug-In . SVG Version: 6.00 Build 0)  -->
<svg version="1.1" id="Camada_1" xmlns="http://www.w3.org/2000/svg" xmlns:xlink="http://www.w3.org/1999/xlink" x="0px" y="0px"
	 viewBox="0 0 115 26" style="enable-background:new 0 0 115 26;" xml:space="preserve">
<style type="text/css">
	.st0{fill:#FFFFFF;stroke:#000000;stroke-width:0.3526;}
	.st1{fill:#FFFFFF;stroke:#000000;stroke-width:0.1974;}
	.st2{fill:none;stroke:#000000;stroke-width:0.2475;}
	.st3{fill:none;stroke:#000000;stroke-width:0.1974;}
	.st4{fill:#FFAAAA;}
	.st5{stroke:#000000;stroke-width:0.1384;}
	.st6{stroke:#000000;stroke-width:3.118628e-02;}
	.st7{fill:#FFD5D5;}
	.st8{stroke:#000000;stroke-width:0.301;}
	.st9{fill:#FFFFFF;stroke:#000000;stroke-width:0.301;}
	.st10{stroke:#000000;stroke-width:0.1313;}
	.st11{fill:#FFFFFF;}
	.st12{fill:#AEADB3;}
	.st13{fill:#D00000;}
	.st14{fill:#FFBA08;}
	.st15{fill:#3F88C5;}
</style>
<g>
	<g>
		<path id="rect4259_1_" inkscape:connector-curvature="0" sodipodi:nodetypes="sssssssss" class="st0" d="M83.2,18.2l3.6-0.2
			c1-0.1,1.8,1.4,1.6,2.5l-0.5,2.9c-0.2,0.8-0.6,1.5-1.4,1.6c-1,0-1.9,0-2.9-0.2c-0.7-0.2-1.2-0.7-1.4-1.4l-0.5-2.4
			C81.4,19.7,82.2,18.3,83.2,18.2z"/>
		<path id="path4268_1_" inkscape:connector-curvature="0" sodipodi:nodetypes="cscc" class="st1" d="M83.2,22.8
			c0.7,0.4,0.5,1.3,2.3,1c1.1-0.2,1.3-1,1.4-1C85.7,22.6,84.4,22.5,83.2,22.8z"/>
		<path id="path4270_1_" inkscape:connector-curvature="0" class="st2" d="M84.6,18.1c-0.1,0.3-0.2,0.6-0.2,1.1"/>
		<path id="path4272_1_" inkscape:connector-curvature="0" class="st2" d="M84.2,18.1c-0.3,0.2-0.3,0.7-0.4,0.9"/>
		<path id="path4274_1_" inkscape:connector-curvature="0" class="st2" d="M83.6,18.2c-0.3,0.1-0.3,0.4-0.4,0.7"/>
		<path id="path4276_1_" inkscape:connector-curvature="0" class="st2" d="M83,18.2c-0.3,0.1-0.5,0.9-0.6,1.2"/>
		<path id="path4278_1_" inkscape:connector-curvature="0" class="st2" d="M82.2,18.8c-0.1,0.3-0.1,0.8-0.2,1"/>
		<path id="path4280_1_" inkscape:connector-curvature="0" class="st2" d="M84.9,18c0.2,0.1,0.5,0.9,0.5,1.5"/>
		<path id="path4282_1_" inkscape:connector-curvature="0" class="st2" d="M85.5,18c0.2,0.2,0.3,0.7,0.4,0.8"/>
		<path id="path4284_1_" inkscape:connector-curvature="0" sodipodi:nodetypes="cc" class="st2" d="M86.2,18
			c0.1,0.2,0.4,0.4,0.4,0.9"/>
		<path id="path4286_1_" inkscape:connector-curvature="0" sodipodi:nodetypes="cc" class="st2" d="M86.6,17.9
			c0.2,0.3,0.5,0.9,0.6,1.4"/>
		<path id="path4288_1_" inkscape:connector-curvature="0" class="st2" d="M87.4,18.2c0.2,0.2,0.2,0.9,0.3,1.1"/>
		<path id="path4290_1_" inkscape:connector-curvature="0" class="st3" d="M85.9,17.9c0-0.4-0.2-0.6-0.3-0.7l-0.9,0
			c-0.3,0.1-0.3,0.4-0.4,0.7"/>
		<path id="path4296_1_" inkscape:connector-curvature="0" class="st3" d="M84.4,18.1c0-0.5,0.2-0.6,0.3-0.7"/>
		<path id="path4298_1_" inkscape:connector-curvature="0" sodipodi:nodetypes="cc" class="st3" d="M84.5,18c0-0.4,0.2-0.6,0.2-0.7"
			/>
		<path id="path4300_1_" inkscape:connector-curvature="0" sodipodi:nodetypes="cc" class="st3" d="M84.8,18c0-0.4,0.1-0.5,0.1-0.7"
			/>
		<path id="path4302_1_" inkscape:connector-curvature="0" sodipodi:nodetypes="cc" class="st3" d="M85,18l0-0.7"/>
		<path id="path4304_1_" inkscape:connector-curvature="0" sodipodi:nodetypes="cc" class="st3" d="M85.2,18c0-0.3,0-0.5-0.1-0.7"/>
		<path id="path4306_1_" inkscape:connector-curvature="0" sodipodi:nodetypes="cc" class="st3" d="M85.5,18c0-0.4-0.1-0.6-0.3-0.7"
			/>
		<path id="path4308_1_" inkscape:connector-curvature="0" class="st3" d="M85.7,18c0-0.4-0.2-0.6-0.3-0.7"/>
		<path id="path4310_1_" inkscape:connector-curvature="0" class="st3" d="M85.6,17.3c-0.2-1.1,0.9-1.6,1.6-0.9
			c0.1,0.1-0.7,0.8-0.6,0"/>
		<path id="path4312_1_" inkscape:connector-curvature="0" class="st3" d="M85.5,17.3c-0.6-1.9,2.3-2.9,2-1"/>
		<path id="path4314_1_" inkscape:connector-curvature="0" class="st3" d="M85.2,17.2c-0.4-1.5,0.3-3,1.8-2.6"/>
		<path id="path4316_1_" inkscape:connector-curvature="0" class="st3" d="M85,17.3c-0.3-1.2-0.1-2.4,0.4-3.1"/>
		<path id="path4318_1_" inkscape:connector-curvature="0" class="st3" d="M84.8,17.3c-0.1-1.1-0.3-2.7-0.8-3"/>
		<path id="path4320_1_" inkscape:connector-curvature="0" class="st3" d="M84.7,17.3c-0.1-1.1-1-3.1-1.7-2.7"/>
		<path id="path4322_1_" inkscape:connector-curvature="0" class="st3" d="M84.6,17.3c-0.4-2.3-2.8-2.3-1.8-1.2"/>
		<path id="path4324_1_" inkscape:connector-curvature="0" sodipodi:nodetypes="csc" class="st3" d="M84.5,17.4
			C84,16.5,83,15.1,83,16.5c0,0.2,0.5,0.4,0.3,0"/>
		<ellipse id="path4326_1_" class="st4" cx="82.5" cy="21.4" rx="0.6" ry="0.3"/>
		<ellipse id="ellipse4328_1_" class="st4" cx="87.2" cy="21.4" rx="0.6" ry="0.3"/>
		<circle id="path3457_1_" cx="83.4" cy="20.8" r="0.3"/>
		<circle id="circle3459_1_" cx="86.5" cy="20.8" r="0.3"/>
		<path id="path4397_1_" inkscape:connector-curvature="0" sodipodi:nodetypes="csssc" class="st3" d="M84.4,17.4
			c-0.1-0.2-0.5-0.6-0.6-0.6c-0.2,0-0.3,0.1-0.4,0.2c-0.1,0.3,0.3,0.5,0.4,0.4c0.2-0.3-0.2-0.5-0.1-0.2"/>
		<path id="path4495_1_" inkscape:connector-curvature="0" class="st2" d="M83.4,19.7c-0.3-0.1-0.5,0.1-0.7,0.3"/>
		<path id="path4497_1_" inkscape:connector-curvature="0" class="st2" d="M86.7,19.6c0.3,0,0.5,0.2,0.7,0.4"/>
	</g>
	<g>
		<g id="layer2_1_" inkscape:groupmode="layer" inkscape:label="Camada 2">
			<polygon id="path4262_1_" class="st5" points="94.9,22.8 94.9,22.8 94.9,22.8 94.9,22.8 			"/>
			<polygon id="circle4264_1_" class="st5" points="98.3,22.8 98.3,22.8 98.3,22.8 98.3,22.8 			"/>
		</g>
		<path id="path4383_1_" inkscape:connector-curvature="0" sodipodi:nodetypes="cssscssssssssssccssssssssscc" class="st6" d="
			M91.7,20.6c-0.4-0.1-0.5-0.4-0.8-0.7c-0.4-0.5,0.3-0.8,0.3-0.6c0,0.1-0.8-0.8-0.7-1c0.1-0.2,0.7-0.2,0.7-0.1c0,0.1-0.6-0.8-0.5-1
			c0.1-0.2,1,0.1,0.8,0.1c-0.1,0-0.3-0.7-0.3-0.9c0.1-0.7,1.1,0.2,0.9,0.2c-0.1,0-0.1-0.2-0.1-0.4c-0.2-1,0.9-0.4,0.8-0.2
			c-0.1,0.1-0.2-1-0.1-1c0.5,0,0.9,0.4,1,0.7c0,0.1-0.1-1.1,0.4-0.8c0.3,0.2,0.5,0.4,0.6,0.8c0,0.1,0,0.3,0,0.2
			c0.6-1.6,0.9,0.1,1.1,0.2c0,0,0.3-0.4,0.5-0.4c0.3,0.1,0.6,1.1,0.5,0.9c-0.2-0.3,0.5-0.3,0.8-0.1c0.2,0.1,0.2,0.9,0.1,0.9
			c-0.2,0,0.5,0.1,0.7,0.4c0.1,0.2,0.3,0.8,0.1,0.8c0,0,0.6,0.3,0.7,0.6c0,0.2-0.3,0.3-0.4,0.4c0,0,0.3,0.3,0.2,0.4
			c-0.2,0.3-0.4,0.4-0.7,0.3L91.7,20.6z"/>
		<path id="path3393_1_" inkscape:connector-curvature="0" sodipodi:nodetypes="sssssssss" class="st0" d="M93.4,18.2
			c1.2,0.6,2.5,0.5,3.6-0.2c0.8-0.5,1.5,1.7,1.4,2.7L98,23.2c-0.1,0.9-0.7,1.3-1.4,1.6c-0.9,0.4-1.8,0.7-2.9-0.2
			c-0.6-0.5-1.3-0.6-1.4-1.4L92,20.7C91.8,19.7,92.5,17.7,93.4,18.2z"/>
		<path id="path3395_1_" inkscape:connector-curvature="0" sodipodi:nodetypes="cscc" class="st1" d="M97,22.3c0,1-0.3,1.4-2.1,1.3
			c-1.6-0.1-1.4-1.4-1.6-1.3C94.5,22.6,95.7,22.7,97,22.3z"/>
		<ellipse id="path4379_1_" class="st7" cx="92.7" cy="21.3" rx="0.3" ry="0.3"/>
		<ellipse id="ellipse4381_1_" class="st7" cx="97.6" cy="21.4" rx="0.3" ry="0.3"/>
		<circle id="circle4491_1_" cx="93.2" cy="20.5" r="0.3"/>
		<circle id="circle4493_1_" cx="97.1" cy="20.5" r="0.3"/>
		<path id="path4499_1_" inkscape:connector-curvature="0" sodipodi:nodetypes="cc" class="st3" d="M92.4,19.5
			c0.5-0.4,0.6-0.5,1.1-0.3"/>
		<path id="path4503_1_" inkscape:connector-curvature="0" class="st3" d="M97.9,19.8c-0.2-0.6-0.4-0.7-1.1-0.8"/>
	</g>
	<g>
		<path id="path4328_1_" inkscape:connector-curvature="0" class="st8" d="M109.6,19.3c-0.5-4.5,4.5-2.9,3.8-0.8
			c-0.2,0.7-2.3-0.8-2.6,1.6L109.6,19.3z"/>
		<path id="path4330_1_" inkscape:connector-curvature="0" class="st9" d="M105.2,19.2c-1.9-4.1-5.4-0.3-3.7,1.2
			c0.6,0.5,1.6-1.8,3,0.1L105.2,19.2z"/>
		<path id="rect3471_1_" inkscape:connector-curvature="0" sodipodi:nodetypes="zszcz" class="st9" d="M104.2,21.4
			c-1-1.1,0.8-3.3,3.5-3.2c2.8,0,4.6,2.2,3.7,3.2s-2.5,5.2-3.7,3C106.5,26.5,105.1,22.5,104.2,21.4L104.2,21.4z"/>
		<path id="path4293_1_" inkscape:connector-curvature="0" sodipodi:nodetypes="sssss" class="st10" d="M107.4,21.5
			c0,0.8-0.7,0.9-1.4,0.9s-1.6-0.9-1.6-1.6s1.1-1.3,1.9-1.3C107,19.5,107.4,20.7,107.4,21.5z"/>
		<circle id="circle4295_1_" cx="109.3" cy="21" r="0.3"/>
		<circle id="circle4297_1_" class="st11" cx="106.3" cy="21" r="0.3"/>
		<path id="path4301_1_" inkscape:connector-curvature="0" sodipodi:nodetypes="cscc" d="M108.8,23.2c0,0.6-0.5,1.2-1.2,1.2
			c-0.6,0-1.2-0.5-1.2-1.2C106.5,22.5,108.8,22.5,108.8,23.2L108.8,23.2z"/>
		<ellipse id="circle4304_1_" class="st11" cx="107.9" cy="23.2" rx="0.6" ry="0.3"/>
	</g>
	<g>
		<path class="st12" d="M1.7,3.7c-0.1,0-0.2-0.1-0.3-0.1c0-0.1-0.1-0.1-0.1-0.2c0-0.1,0-0.2,0.1-0.2C1.5,3,1.6,3,1.6,3l3.1,0
			C4.9,3,5,3,5,3.1c0,0.1,0.1,0.1,0.1,0.2s0,0.1-0.1,0.2c0,0.1-0.1,0.1-0.2,0.1L3.5,3.7l0,7.8c0,0.1-0.1,0.2-0.1,0.2
			c-0.1,0-0.1,0.1-0.2,0.1c-0.1,0-0.2,0-0.3,0s-0.1-0.1-0.2-0.1V3.7L1.7,3.7z"/>
		<path class="st12" d="M6.2,10.7c-0.3-0.3-0.5-0.7-0.7-1.2C5.3,9,5.2,8.4,5.2,7.9s0-1.1,0.1-1.7c0.1-0.6,0.3-1.1,0.5-1.5
			c0.2-0.4,0.5-0.8,0.8-1c0.3-0.3,0.6-0.4,0.9-0.5c0.3-0.1,0.6-0.1,1,0c0.3,0.1,0.7,0.3,1,0.6c0.3,0.2,0.5,0.5,0.7,0.8
			s0.3,0.7,0.5,1c0.1,0.4,0.2,0.8,0.2,1.2s0,0.8,0,1.2c0,0.4-0.1,0.8-0.2,1.1s-0.2,0.7-0.4,1c-0.3,0.5-0.5,0.8-0.9,1.1
			s-0.7,0.4-1,0.5c-0.4,0.1-0.7,0-1.1-0.1C6.8,11.2,6.5,11,6.2,10.7z M6.5,10c0.3,0.4,0.5,0.6,0.8,0.8c0.3,0.1,0.6,0.2,0.9,0.2
			c0.3,0,0.5-0.1,0.8-0.3c0.2-0.2,0.4-0.4,0.6-0.7c0.2-0.5,0.4-1,0.5-1.5s0.1-1.1,0-1.6c-0.1-0.5-0.2-1-0.3-1.5
			C9.5,4.8,9.3,4.5,9,4.2C8.8,4,8.6,3.9,8.4,3.8s-0.5-0.1-0.7,0C7.4,3.9,7.1,4,6.9,4.1S6.5,4.5,6.4,4.8C6.2,5.2,6.1,5.6,6,6
			C5.9,6.5,5.8,7,5.8,7.4c0,0.5,0,0.9,0.2,1.4C6.1,9.2,6.2,9.6,6.5,10z"/>
		<path class="st12" d="M16.1,9.9c-0.2,0.2-0.4,0.4-0.7,0.7c-0.3,0.2-0.6,0.4-0.9,0.6c-0.3,0.2-0.7,0.3-1,0.4
			c-0.4,0.1-0.7,0.1-1,0.1c-0.3,0-0.6-0.1-0.8-0.3c-0.2-0.2-0.3-0.5-0.4-0.8c0-0.4,0.1-0.7,0.2-0.9c0.2-0.3,0.4-0.5,0.6-0.7
			c0.3-0.2,0.6-0.3,0.9-0.4c0.3-0.1,0.7-0.2,1-0.2c0.4,0,0.7,0,1,0c0.3,0,0.7,0.1,0.9,0.2l-0.1-5.1c0-0.1,0-0.2,0.1-0.3
			c0.1,0,0.1-0.1,0.2-0.1c0.1,0,0.1,0,0.2,0.1c0.1,0.1,0.1,0.1,0.1,0.2c0,0.9,0.1,1.7,0.1,2.3c0,0.6,0,1.2,0.1,1.6
			c0,0.5,0,0.9,0,1.2c0,0.3,0,0.7,0,1c0,0.3,0,0.7,0,1.1c0,0.4,0,0.9,0.1,1.5c0,0.1,0,0.2-0.1,0.2s-0.1,0.1-0.2,0.1
			c-0.1,0-0.1,0-0.2,0c-0.1,0-0.1-0.1-0.2-0.2L16.1,9.9z M12,10.6c0.1,0.2,0.2,0.3,0.4,0.4c0.2,0.1,0.4,0.1,0.6,0s0.5-0.1,0.8-0.3
			c0.3-0.1,0.5-0.3,0.8-0.5c0.3-0.2,0.5-0.4,0.7-0.6s0.4-0.4,0.5-0.6c-0.2-0.1-0.4-0.2-0.7-0.2c-0.3,0-0.6-0.1-0.9,0
			C14,9,13.7,9,13.4,9.1c-0.3,0.1-0.5,0.2-0.8,0.3s-0.4,0.3-0.5,0.5C12,10.1,11.9,10.4,12,10.6z"/>
		<path class="st12" d="M18.7,10.7c-0.3-0.3-0.5-0.7-0.7-1.2c-0.2-0.5-0.3-1-0.3-1.6s0-1.1,0.1-1.7c0.1-0.6,0.3-1.1,0.5-1.5
			c0.2-0.4,0.5-0.8,0.8-1c0.3-0.3,0.6-0.4,0.9-0.5c0.3-0.1,0.6-0.1,1,0c0.3,0.1,0.7,0.3,1,0.6c0.3,0.2,0.5,0.5,0.7,0.8
			s0.3,0.7,0.5,1c0.1,0.4,0.2,0.8,0.2,1.2s0,0.8,0,1.2c0,0.4-0.1,0.8-0.2,1.1s-0.2,0.7-0.4,1c-0.3,0.5-0.5,0.8-0.9,1.1
			s-0.7,0.4-1,0.5c-0.4,0.1-0.7,0-1.1-0.1C19.4,11.2,19,11,18.7,10.7z M19,10c0.3,0.4,0.5,0.6,0.8,0.8c0.3,0.1,0.6,0.2,0.9,0.2
			c0.3,0,0.5-0.1,0.8-0.3c0.2-0.2,0.4-0.4,0.6-0.7c0.2-0.5,0.4-1,0.5-1.5s0.1-1.1,0-1.6c-0.1-0.5-0.2-1-0.3-1.5
			c-0.2-0.5-0.4-0.8-0.7-1.1c-0.2-0.2-0.4-0.3-0.6-0.4s-0.5-0.1-0.7,0c-0.2,0.1-0.5,0.2-0.7,0.3S19.1,4.5,19,4.8
			c-0.2,0.4-0.3,0.8-0.4,1.3c-0.1,0.5-0.2,0.9-0.2,1.4c0,0.5,0,0.9,0.2,1.4C18.6,9.2,18.8,9.6,19,10z"/>
		<path class="st12" d="M26.9,13.8c-0.2,0-0.4,0-0.7-0.1s-0.4-0.2-0.6-0.3c-0.2-0.1-0.4-0.3-0.5-0.4c-0.2-0.2-0.3-0.4-0.4-0.6
			c0-0.1,0-0.3,0-0.3s0.1-0.2,0.2-0.2c0.1-0.1,0.1-0.1,0.2-0.1c0.1,0,0.1,0,0.2,0.1c0.1,0.1,0.2,0.2,0.3,0.3
			c0.1,0.1,0.2,0.3,0.3,0.4c0.1,0.1,0.3,0.2,0.5,0.3S26.7,13,27,13c0.4-0.2,0.6-0.5,0.7-0.8c0.1-0.3,0.1-0.7,0-1.1s-0.2-0.8-0.4-1.1
			c-0.2-0.4-0.4-0.7-0.6-1c-0.1-0.1-0.1-0.2-0.3-0.4S26.1,8.2,26,8c-0.1-0.2-0.3-0.5-0.5-0.7c-0.2-0.2-0.3-0.5-0.5-0.7
			c-0.2-0.2-0.3-0.4-0.4-0.6s-0.2-0.3-0.3-0.4C24.2,5.3,24.1,5,24,4.7c-0.1-0.3-0.1-0.6-0.2-0.9c0-0.3,0-0.6,0.1-0.9
			c0.1-0.3,0.2-0.5,0.3-0.8s0.4-0.4,0.6-0.6s0.5-0.2,0.9-0.3c0.3,0,0.6,0,0.9,0.2c0.3,0.1,0.5,0.3,0.7,0.5s0.4,0.4,0.5,0.7
			s0.2,0.4,0.3,0.6c0,0.1,0,0.2,0,0.2c0,0.1-0.1,0.1-0.1,0.2c-0.1,0-0.1,0.1-0.2,0.1s-0.1,0-0.2-0.1c0-0.1-0.1-0.2-0.2-0.4
			c-0.1-0.2-0.2-0.4-0.4-0.5s-0.3-0.3-0.5-0.5c-0.2-0.1-0.4-0.2-0.7-0.2c-0.4,0-0.7,0.2-1,0.4c-0.2,0.2-0.4,0.5-0.4,0.9
			c0,0.3,0,0.7,0.1,1C24.6,4.7,24.8,5,25,5.2l2.9,4.3c0.1,0.2,0.2,0.4,0.3,0.7s0.2,0.6,0.2,0.9c0,0.3,0.1,0.6,0,0.9
			c0,0.3-0.1,0.6-0.2,0.8c-0.1,0.3-0.3,0.5-0.5,0.6C27.6,13.7,27.3,13.7,26.9,13.8z"/>
		<path class="st12" d="M34.5,11.7c-0.1,0.1-0.2,0.2-0.3,0.2c-0.1,0-0.2,0-0.2,0c-0.1,0-0.1,0-0.2-0.1s-0.1-0.1,0-0.1l0-7.9
			c0-0.1,0-0.1,0.1-0.2c0.1-0.1,0.1-0.1,0.2-0.1c0.1,0,0.2,0,0.2,0s0.1,0.1,0.2,0.3l0,0.9c0.2-0.2,0.4-0.5,0.7-0.7
			c0.3-0.2,0.6-0.4,0.9-0.5c0.3-0.1,0.7-0.3,1-0.3C37.4,3,37.7,3,38,3.1c0.5,0.1,0.9,0.3,1.3,0.6c0.3,0.3,0.5,0.7,0.7,1.1
			C40,5.2,40.1,5.7,40,6.2c-0.1,0.5-0.2,1-0.5,1.4s-0.6,0.8-1,1.2c-0.4,0.3-1,0.6-1.6,0.7c-0.6,0-1.1-0.1-1.5-0.2
			c-0.4-0.1-0.7-0.4-0.9-0.7L34.5,11.7z M37.8,3.8c-0.3,0-0.6,0-0.9,0s-0.6,0.2-1,0.4c-0.3,0.2-0.6,0.4-0.9,0.7
			c-0.3,0.3-0.5,0.6-0.6,1l0.1,1.5c0.2,0.5,0.4,0.8,0.9,1.1c0.4,0.3,0.9,0.4,1.6,0.3c0.5-0.1,0.9-0.3,1.2-0.6c0.3-0.3,0.6-0.6,0.8-1
			c0.2-0.4,0.3-0.7,0.4-1.1c0-0.4,0-0.8-0.1-1.1c-0.1-0.3-0.3-0.6-0.5-0.8S38.2,3.8,37.8,3.8z"/>
		<path class="st12" d="M42.1,10.7c-0.3-0.3-0.5-0.7-0.7-1.2c-0.2-0.5-0.3-1-0.3-1.6s0-1.1,0.1-1.7c0.1-0.6,0.3-1.1,0.5-1.5
			c0.2-0.4,0.5-0.8,0.8-1c0.3-0.3,0.6-0.4,0.9-0.5c0.3-0.1,0.6-0.1,1,0c0.3,0.1,0.7,0.3,1,0.6c0.3,0.2,0.5,0.5,0.7,0.8
			s0.3,0.7,0.5,1c0.1,0.4,0.2,0.8,0.2,1.2s0,0.8,0,1.2c0,0.4-0.1,0.8-0.2,1.1s-0.2,0.7-0.4,1c-0.3,0.5-0.5,0.8-0.9,1.1
			s-0.7,0.4-1,0.5c-0.4,0.1-0.7,0-1.1-0.1C42.8,11.2,42.4,11,42.1,10.7z M42.4,10c0.3,0.4,0.5,0.6,0.8,0.8c0.3,0.1,0.6,0.2,0.9,0.2
			c0.3,0,0.5-0.1,0.8-0.3c0.2-0.2,0.4-0.4,0.6-0.7c0.2-0.5,0.4-1,0.5-1.5s0.1-1.1,0-1.6c-0.1-0.5-0.2-1-0.3-1.5
			c-0.2-0.5-0.4-0.8-0.7-1.1c-0.2-0.2-0.4-0.3-0.6-0.4s-0.5-0.1-0.7,0c-0.2,0.1-0.5,0.2-0.7,0.3s-0.4,0.4-0.5,0.6
			C42.2,5.2,42,5.6,41.9,6c-0.1,0.5-0.2,0.9-0.2,1.4c0,0.5,0,0.9,0.2,1.4C42,9.2,42.2,9.6,42.4,10z"/>
		<path class="st12" d="M48.4,11.6c0,0.1-0.1,0.1-0.1,0.2s-0.1,0.1-0.2,0.1c-0.1,0-0.2,0-0.2,0c-0.1,0-0.1-0.1-0.1-0.1L47.7,4
			c0.1-0.1,0.1-0.1,0.2-0.2s0.2-0.1,0.2-0.1c0.1,0,0.1,0,0.2,0.1c0,0,0.1,0.1,0.1,0.2l0,0.7c0.5-0.3,1.1-0.5,1.6-0.7
			c0.5-0.2,0.9-0.3,1.3-0.3c0.4,0,0.7,0.1,1,0.3c0.3,0.2,0.5,0.6,0.7,1.1c0,0.1,0,0.2,0,0.3c0,0.1-0.1,0.2-0.2,0.2
			c-0.1,0.1-0.1,0.1-0.2,0.1c-0.1,0-0.1-0.1-0.1-0.2c-0.1-0.5-0.4-0.8-0.6-0.9c-0.3-0.1-0.6-0.2-1-0.1s-0.8,0.2-1.2,0.4
			c-0.4,0.2-0.8,0.5-1.3,0.8L48.4,11.6z"/>
		<path class="st12" d="M63.8,10.6c0,0.1,0,0.2-0.1,0.3c-0.1,0.1-0.1,0.1-0.2,0.1c-0.1,0-0.1,0-0.2,0c-0.1,0-0.1-0.1-0.2-0.2
			l-0.3-2.1c-0.2,0.3-0.4,0.6-0.6,0.9c-0.2,0.3-0.5,0.6-0.8,0.9c-0.3,0.3-0.6,0.5-1,0.7c-0.4,0.2-0.7,0.3-1.1,0.3
			c-0.2,0-0.4-0.1-0.6-0.2s-0.3-0.2-0.4-0.4c-0.1-0.2-0.2-0.4-0.3-0.6C58,10.1,58,9.9,58,9.7c0-0.5,0.1-1,0.2-1.5
			c0.1-0.5,0.2-1,0.4-1.5c0.1-0.5,0.3-1,0.5-1.5c0.2-0.5,0.3-1,0.5-1.5c0-0.1,0.1-0.2,0.1-0.3c0.1-0.1,0.2-0.1,0.3-0.1
			s0.2,0,0.3,0.1c0.1,0.1,0.1,0.1,0.1,0.3c-0.1,0.3-0.2,0.7-0.3,1.1c-0.2,0.4-0.3,0.9-0.5,1.4S59.1,7,59,7.5c-0.1,0.5-0.2,1-0.3,1.4
			c0,0.4,0,0.8,0,1.2c0.1,0.3,0.2,0.6,0.5,0.7c0.4,0,0.8-0.1,1.1-0.4c0.4-0.2,0.7-0.5,1-0.9c0.3-0.4,0.6-0.7,0.8-1.1
			s0.4-0.8,0.6-1.1c0-0.6-0.1-1.1-0.1-1.5s0-0.8-0.1-1s0-0.5,0-0.7s0-0.3,0-0.5c0-0.1,0-0.2,0.1-0.3s0.1-0.1,0.2-0.1
			c0.1,0,0.2,0,0.2,0.1s0.1,0.2,0.1,0.4c0.1,0.6,0.1,1.2,0.1,1.7c0,0.6,0.1,1.2,0.1,1.8c0,0.6,0.1,1.2,0.1,1.8
			C63.7,9.5,63.7,10.1,63.8,10.6z"/>
		<path class="st12" d="M70.4,3.1c0.1,0.4,0.2,0.8,0.3,1.3c0.1,0.5,0.3,1,0.4,1.5c0.1,0.5,0.3,1,0.5,1.6c0.2,0.5,0.3,1,0.5,1.5
			c0.2,0.5,0.3,0.9,0.4,1.4s0.2,0.8,0.3,1.1c0,0.1-0.1,0.1-0.1,0.2c-0.1,0.1-0.2,0.1-0.2,0.1c-0.1,0-0.2,0-0.2,0
			c-0.1,0-0.1-0.1-0.1-0.1L70,4.5l-0.9,4.2c0,0.1,0,0.3-0.1,0.4c-0.1,0.1-0.2,0.2-0.3,0.2c-0.1,0-0.2,0-0.3-0.1
			c-0.1-0.1-0.2-0.2-0.2-0.4l-1.1-4c0,0-0.1,0.2-0.1,0.4c-0.1,0.2-0.1,0.5-0.2,0.8c-0.1,0.3-0.2,0.6-0.3,1c-0.1,0.4-0.2,0.8-0.3,1.2
			c-0.1,0.4-0.2,0.8-0.3,1.2c-0.1,0.4-0.2,0.8-0.3,1.1s-0.1,0.6-0.2,0.9c-0.1,0.2-0.1,0.4-0.1,0.5c0,0.1-0.1,0.1-0.2,0.1
			c-0.1,0-0.1,0-0.2,0c-0.1,0-0.1,0-0.2-0.1c-0.1,0-0.1-0.1-0.2-0.1l2.2-8.3C66.9,3.2,67,3.1,67,3.1c0.1,0,0.1,0,0.2,0
			c0.1,0,0.1,0.1,0.2,0.1c0,0.1,0.1,0.1,0.1,0.2l1.1,4.1l0.9-4.2C69.5,3.1,69.6,3,69.7,3c0.1-0.1,0.1-0.1,0.2-0.1c0.1,0,0.2,0,0.2,0
			C70.2,2.9,70.3,3,70.4,3.1z"/>
		<path class="st12" d="M80.9,13.8c-0.2,0-0.4,0-0.7-0.1s-0.4-0.2-0.6-0.3c-0.2-0.1-0.4-0.3-0.5-0.4c-0.2-0.2-0.3-0.4-0.4-0.6
			c0-0.1,0-0.3,0-0.3c0-0.1,0.1-0.2,0.2-0.2c0.1-0.1,0.1-0.1,0.2-0.1c0.1,0,0.1,0,0.2,0.1c0.1,0.1,0.2,0.2,0.3,0.3s0.2,0.3,0.3,0.4
			s0.3,0.2,0.5,0.3C80.4,13,80.7,13,81,13c0.4-0.2,0.6-0.5,0.7-0.8c0.1-0.3,0.1-0.7,0-1.1s-0.2-0.8-0.4-1.1c-0.2-0.4-0.4-0.7-0.6-1
			c-0.1-0.1-0.1-0.2-0.3-0.4S80.1,8.2,80,8c-0.1-0.2-0.3-0.5-0.5-0.7C79.3,7,79.2,6.8,79,6.6c-0.2-0.2-0.3-0.4-0.4-0.6
			s-0.2-0.3-0.3-0.4C78.2,5.3,78,5,78,4.7c-0.1-0.3-0.1-0.6-0.2-0.9c0-0.3,0-0.6,0.1-0.9s0.2-0.5,0.3-0.8c0.2-0.2,0.4-0.4,0.6-0.6
			c0.2-0.1,0.5-0.2,0.9-0.3c0.3,0,0.6,0,0.9,0.2c0.3,0.1,0.5,0.3,0.7,0.5s0.4,0.4,0.5,0.7C82,2.8,82.1,3,82.1,3.1c0,0.1,0,0.2,0,0.2
			c0,0.1-0.1,0.1-0.1,0.2c-0.1,0-0.1,0.1-0.2,0.1s-0.1,0-0.2-0.1c0-0.1-0.1-0.2-0.2-0.4S81.1,2.7,81,2.6s-0.3-0.3-0.5-0.5
			C80.3,2,80,1.9,79.8,1.9c-0.4,0-0.7,0.2-1,0.4c-0.2,0.2-0.4,0.5-0.4,0.9c0,0.3,0,0.7,0.1,1C78.6,4.7,78.8,5,79,5.2l2.9,4.3
			c0.1,0.2,0.2,0.4,0.3,0.7c0.1,0.3,0.2,0.6,0.2,0.9s0.1,0.6,0,0.9c0,0.3-0.1,0.6-0.2,0.8s-0.3,0.5-0.5,0.6S81.3,13.7,80.9,13.8z"/>
		<path class="st12" d="M83.9,10.7c-0.3-0.3-0.5-0.7-0.7-1.2s-0.3-1-0.3-1.6c0-0.6,0-1.1,0.1-1.7c0.1-0.6,0.3-1.1,0.5-1.5
			c0.2-0.4,0.5-0.8,0.8-1s0.6-0.4,0.9-0.5c0.3-0.1,0.6-0.1,1,0s0.7,0.3,1,0.6c0.3,0.2,0.5,0.5,0.7,0.8c0.2,0.3,0.3,0.7,0.5,1
			c0.1,0.4,0.2,0.8,0.2,1.2s0,0.8,0,1.2c0,0.4-0.1,0.8-0.2,1.1c-0.1,0.4-0.2,0.7-0.4,1c-0.3,0.5-0.5,0.8-0.9,1.1s-0.7,0.4-1,0.5
			c-0.4,0.1-0.7,0-1.1-0.1C84.6,11.2,84.3,11,83.9,10.7z M84.2,10c0.3,0.4,0.5,0.6,0.8,0.8c0.3,0.1,0.6,0.2,0.9,0.2
			c0.3,0,0.5-0.1,0.8-0.3c0.2-0.2,0.4-0.4,0.6-0.7c0.2-0.5,0.4-1,0.5-1.5s0.1-1.1,0-1.6c-0.1-0.5-0.2-1-0.3-1.5
			c-0.2-0.5-0.4-0.8-0.7-1.1c-0.2-0.2-0.4-0.3-0.6-0.4c-0.2-0.1-0.5-0.1-0.7,0S84.9,4,84.7,4.1s-0.4,0.4-0.5,0.6
			C84,5.2,83.8,5.6,83.7,6c-0.1,0.5-0.2,0.9-0.2,1.4c0,0.5,0,0.9,0.2,1.4C83.8,9.2,84,9.6,84.2,10z"/>
		<path class="st12" d="M90.3,11.6c0,0.1-0.1,0.1-0.1,0.2s-0.1,0.1-0.2,0.1c-0.1,0-0.2,0-0.2,0c-0.1,0-0.1-0.1-0.1-0.1L89.5,4
			c0.1-0.1,0.1-0.1,0.2-0.2s0.2-0.1,0.2-0.1s0.1,0,0.2,0.1c0,0,0.1,0.1,0.1,0.2l0,0.7c0.5-0.3,1.1-0.5,1.6-0.7
			c0.5-0.2,0.9-0.3,1.3-0.3c0.4,0,0.7,0.1,1,0.3s0.5,0.6,0.7,1.1c0,0.1,0,0.2,0,0.3c0,0.1-0.1,0.2-0.2,0.2c-0.1,0.1-0.1,0.1-0.2,0.1
			c-0.1,0-0.1-0.1-0.1-0.2c-0.1-0.5-0.4-0.8-0.6-0.9c-0.3-0.1-0.6-0.2-1-0.1s-0.8,0.2-1.2,0.4c-0.4,0.2-0.8,0.5-1.3,0.8L90.3,11.6z"
			/>
		<path class="st12" d="M96.3,11.6c0,0.1-0.1,0.1-0.1,0.2s-0.1,0.1-0.2,0.1c-0.1,0-0.2,0-0.2,0c-0.1,0-0.1-0.1-0.1-0.1L95.5,4
			c0.1-0.1,0.1-0.1,0.2-0.2s0.2-0.1,0.2-0.1s0.1,0,0.2,0.1c0,0,0.1,0.1,0.1,0.2l0,0.7c0.5-0.3,1.1-0.5,1.6-0.7
			c0.5-0.2,0.9-0.3,1.3-0.3c0.4,0,0.7,0.1,1,0.3s0.5,0.6,0.7,1.1c0,0.1,0,0.2,0,0.3c0,0.1-0.1,0.2-0.2,0.2c-0.1,0.1-0.1,0.1-0.2,0.1
			c-0.1,0-0.1-0.1-0.1-0.2c-0.1-0.5-0.4-0.8-0.6-0.9c-0.3-0.1-0.6-0.2-1-0.1s-0.8,0.2-1.2,0.4c-0.4,0.2-0.8,0.5-1.3,0.8L96.3,11.6z"
			/>
		<path class="st12" d="M102,4.3c-0.1,0-0.3,0-0.4-0.1c-0.1-0.1-0.2-0.2-0.2-0.3c0-0.1,0-0.2,0-0.3c0-0.1,0.2-0.2,0.3-0.2
			c0.2,0,0.3,0,0.5,0.1s0.2,0.2,0.2,0.3c0,0.1,0,0.2-0.1,0.3C102.3,4.2,102.2,4.3,102,4.3z M102.3,11.3c-0.1,0.2-0.2,0.2-0.3,0.3
			c-0.1,0-0.2,0-0.2,0c-0.1,0-0.2-0.1-0.2-0.2V5.8c0-0.1,0-0.2,0.1-0.2c0.1-0.1,0.2-0.1,0.2-0.1c0.1,0,0.2,0,0.2,0.1
			c0.1,0,0.1,0.1,0.1,0.2V11.3z"/>
		<path class="st12" d="M106.6,13.8c-0.2,0-0.4,0-0.7-0.1s-0.4-0.2-0.6-0.3c-0.2-0.1-0.4-0.3-0.5-0.4c-0.2-0.2-0.3-0.4-0.4-0.6
			c0-0.1,0-0.3,0-0.3c0-0.1,0.1-0.2,0.2-0.2c0.1-0.1,0.1-0.1,0.2-0.1c0.1,0,0.1,0,0.2,0.1c0.1,0.1,0.2,0.2,0.3,0.3s0.2,0.3,0.3,0.4
			s0.3,0.2,0.5,0.3c0.2,0.1,0.4,0.1,0.7,0.1c0.4-0.2,0.6-0.5,0.7-0.8c0.1-0.3,0.1-0.7,0-1.1s-0.2-0.8-0.4-1.1
			c-0.2-0.4-0.4-0.7-0.6-1c-0.1-0.1-0.1-0.2-0.3-0.4s-0.3-0.4-0.4-0.6c-0.1-0.2-0.3-0.5-0.5-0.7c-0.2-0.2-0.3-0.5-0.5-0.7
			c-0.2-0.2-0.3-0.4-0.4-0.6s-0.2-0.3-0.3-0.4c-0.2-0.3-0.3-0.6-0.4-0.9c-0.1-0.3-0.1-0.6-0.2-0.9c0-0.3,0-0.6,0.1-0.9
			s0.2-0.5,0.3-0.8c0.2-0.2,0.4-0.4,0.6-0.6c0.2-0.1,0.5-0.2,0.9-0.3c0.3,0,0.6,0,0.9,0.2c0.3,0.1,0.5,0.3,0.7,0.5s0.4,0.4,0.5,0.7
			c0.1,0.2,0.2,0.4,0.3,0.6c0,0.1,0,0.2,0,0.2c0,0.1-0.1,0.1-0.1,0.2c-0.1,0-0.1,0.1-0.2,0.1s-0.1,0-0.2-0.1c0-0.1-0.1-0.2-0.2-0.4
			s-0.2-0.4-0.4-0.5s-0.3-0.3-0.5-0.5c-0.2-0.1-0.4-0.2-0.7-0.2c-0.4,0-0.7,0.2-1,0.4c-0.2,0.2-0.4,0.5-0.4,0.9c0,0.3,0,0.7,0.1,1
			c0.1,0.4,0.2,0.7,0.5,0.9l2.9,4.3c0.1,0.2,0.2,0.4,0.3,0.7c0.1,0.3,0.2,0.6,0.2,0.9s0.1,0.6,0,0.9c0,0.3-0.1,0.6-0.2,0.8
			s-0.3,0.5-0.5,0.6S107,13.7,106.6,13.8z"/>
		<path class="st12" d="M109.7,10.7c-0.3-0.3-0.5-0.7-0.7-1.2s-0.3-1-0.3-1.6c0-0.6,0-1.1,0.1-1.7c0.1-0.6,0.3-1.1,0.5-1.5
			c0.2-0.4,0.5-0.8,0.8-1s0.6-0.4,0.9-0.5c0.3-0.1,0.6-0.1,1,0s0.7,0.3,1,0.6c0.3,0.2,0.5,0.5,0.7,0.8c0.2,0.3,0.3,0.7,0.5,1
			c0.1,0.4,0.2,0.8,0.2,1.2s0,0.8,0,1.2c0,0.4-0.1,0.8-0.2,1.1c-0.1,0.4-0.2,0.7-0.4,1c-0.3,0.5-0.5,0.8-0.9,1.1s-0.7,0.4-1,0.5
			c-0.4,0.1-0.7,0-1.1-0.1C110.3,11.2,110,11,109.7,10.7z M110,10c0.3,0.4,0.5,0.6,0.8,0.8c0.3,0.1,0.6,0.2,0.9,0.2
			c0.3,0,0.5-0.1,0.8-0.3c0.2-0.2,0.4-0.4,0.6-0.7c0.2-0.5,0.4-1,0.5-1.5s0.1-1.1,0-1.6c-0.1-0.5-0.2-1-0.3-1.5
			c-0.2-0.5-0.4-0.8-0.7-1.1c-0.2-0.2-0.4-0.3-0.6-0.4c-0.2-0.1-0.5-0.1-0.7,0s-0.5,0.2-0.7,0.3s-0.4,0.4-0.5,0.6
			c-0.2,0.4-0.3,0.8-0.4,1.3c-0.1,0.5-0.2,0.9-0.2,1.4c0,0.5,0,0.9,0.2,1.4C109.6,9.2,109.7,9.6,110,10z"/>
	</g>
	<g>
		<path class="st13" d="M1.2,3C1,2.9,0.9,2.9,0.9,2.8c0-0.1-0.1-0.1-0.1-0.2c0-0.1,0-0.2,0.1-0.2C1,2.3,1,2.3,1.1,2.3l3.1,0
			c0.1,0,0.2,0,0.2,0.1c0,0.1,0.1,0.1,0.1,0.2s0,0.1-0.1,0.2c0,0.1-0.1,0.1-0.2,0.1L3,3l0,7.8c0,0.1-0.1,0.2-0.1,0.2
			C2.8,11,2.7,11,2.7,11c-0.1,0-0.2,0-0.3,0s-0.1-0.1-0.2-0.1V3L1.2,3z"/>
		<path class="st13" d="M5.6,9.9C5.3,9.6,5.1,9.2,4.9,8.7c-0.2-0.5-0.3-1-0.3-1.6s0-1.1,0.1-1.7C4.8,4.9,5,4.4,5.2,4
			c0.2-0.4,0.5-0.8,0.8-1c0.3-0.3,0.6-0.4,0.9-0.5c0.3-0.1,0.6-0.1,1,0c0.3,0.1,0.7,0.3,1,0.6c0.3,0.2,0.5,0.5,0.7,0.8
			s0.3,0.7,0.5,1c0.1,0.4,0.2,0.8,0.2,1.2s0,0.8,0,1.2c0,0.4-0.1,0.8-0.2,1.1S9.8,9,9.6,9.3c-0.3,0.5-0.5,0.8-0.9,1.1
			s-0.7,0.4-1,0.5c-0.4,0.1-0.7,0-1.1-0.1C6.3,10.5,5.9,10.3,5.6,9.9z M5.9,9.2C6.2,9.6,6.5,9.9,6.8,10c0.3,0.1,0.6,0.2,0.9,0.2
			c0.3,0,0.5-0.1,0.8-0.3C8.7,9.7,8.9,9.5,9,9.2c0.2-0.5,0.4-1,0.5-1.5s0.1-1.1,0-1.6C9.5,5.5,9.3,5,9.2,4.6C9,4.1,8.7,3.7,8.5,3.4
			C8.3,3.3,8.1,3.1,7.8,3.1S7.3,3,7.1,3.1C6.8,3.1,6.6,3.2,6.4,3.4S6,3.8,5.8,4C5.7,4.4,5.5,4.8,5.4,5.3C5.3,5.8,5.2,6.2,5.2,6.7
			c0,0.5,0,0.9,0.2,1.4C5.5,8.5,5.7,8.9,5.9,9.2z"/>
		<path class="st13" d="M15.6,9.2c-0.2,0.2-0.4,0.4-0.7,0.7c-0.3,0.2-0.6,0.4-0.9,0.6c-0.3,0.2-0.7,0.3-1,0.4
			c-0.4,0.1-0.7,0.1-1,0.1c-0.3,0-0.6-0.1-0.8-0.3c-0.2-0.2-0.3-0.5-0.4-0.8c0-0.4,0.1-0.7,0.2-0.9c0.2-0.3,0.4-0.5,0.6-0.7
			c0.3-0.2,0.6-0.3,0.9-0.4c0.3-0.1,0.7-0.2,1-0.2c0.4,0,0.7,0,1,0c0.3,0,0.7,0.1,0.9,0.2l-0.1-5.1c0-0.1,0-0.2,0.1-0.3
			c0.1,0,0.1-0.1,0.2-0.1c0.1,0,0.1,0,0.2,0.1C15.9,2.5,16,2.6,16,2.6c0,0.9,0.1,1.7,0.1,2.3c0,0.6,0,1.2,0.1,1.6c0,0.5,0,0.9,0,1.2
			c0,0.3,0,0.7,0,1c0,0.3,0,0.7,0,1.1c0,0.4,0,0.9,0.1,1.5c0,0.1,0,0.2-0.1,0.2S16,11.8,16,11.8c-0.1,0-0.1,0-0.2,0
			c-0.1,0-0.1-0.1-0.2-0.2L15.6,9.2z M11.4,9.9c0.1,0.2,0.2,0.3,0.4,0.4c0.2,0.1,0.4,0.1,0.6,0s0.5-0.1,0.8-0.3
			c0.3-0.1,0.5-0.3,0.8-0.5c0.3-0.2,0.5-0.4,0.7-0.6s0.4-0.4,0.5-0.6c-0.2-0.1-0.4-0.2-0.7-0.2c-0.3,0-0.6-0.1-0.9,0
			c-0.3,0-0.6,0.1-0.9,0.1c-0.3,0.1-0.5,0.2-0.8,0.3S11.7,9,11.6,9.2C11.4,9.4,11.4,9.6,11.4,9.9z"/>
		<path class="st13" d="M18.2,9.9c-0.3-0.3-0.5-0.7-0.7-1.2c-0.2-0.5-0.3-1-0.3-1.6s0-1.1,0.1-1.7c0.1-0.6,0.3-1.1,0.5-1.5
			c0.2-0.4,0.5-0.8,0.8-1c0.3-0.3,0.6-0.4,0.9-0.5c0.3-0.1,0.6-0.1,1,0c0.3,0.1,0.7,0.3,1,0.6c0.3,0.2,0.5,0.5,0.7,0.8
			s0.3,0.7,0.5,1c0.1,0.4,0.2,0.8,0.2,1.2s0,0.8,0,1.2c0,0.4-0.1,0.8-0.2,1.1s-0.2,0.7-0.4,1c-0.3,0.5-0.5,0.8-0.9,1.1
			s-0.7,0.4-1,0.5c-0.4,0.1-0.7,0-1.1-0.1C18.8,10.5,18.5,10.3,18.2,9.9z M18.5,9.2c0.3,0.4,0.5,0.6,0.8,0.8
			c0.3,0.1,0.6,0.2,0.9,0.2c0.3,0,0.5-0.1,0.8-0.3c0.2-0.2,0.4-0.4,0.6-0.7c0.2-0.5,0.4-1,0.5-1.5s0.1-1.1,0-1.6
			c-0.1-0.5-0.2-1-0.3-1.5c-0.2-0.5-0.4-0.8-0.7-1.1c-0.2-0.2-0.4-0.3-0.6-0.4s-0.5-0.1-0.7,0c-0.2,0.1-0.5,0.2-0.7,0.3
			S18.5,3.8,18.4,4c-0.2,0.4-0.3,0.8-0.4,1.3c-0.1,0.5-0.2,0.9-0.2,1.4c0,0.5,0,0.9,0.2,1.4C18.1,8.5,18.2,8.9,18.5,9.2z"/>
		<path class="st13" d="M26.4,13c-0.2,0-0.4,0-0.7-0.1s-0.4-0.2-0.6-0.3c-0.2-0.1-0.4-0.3-0.5-0.4c-0.2-0.2-0.3-0.4-0.4-0.6
			c0-0.1,0-0.3,0-0.3s0.1-0.2,0.2-0.2c0.1-0.1,0.1-0.1,0.2-0.1c0.1,0,0.1,0,0.2,0.1c0.1,0.1,0.2,0.2,0.3,0.3
			c0.1,0.1,0.2,0.3,0.3,0.4c0.1,0.1,0.3,0.2,0.5,0.3s0.4,0.1,0.7,0.1c0.4-0.2,0.6-0.5,0.7-0.8c0.1-0.3,0.1-0.7,0-1.1
			s-0.2-0.8-0.4-1.1c-0.2-0.4-0.4-0.7-0.6-1C26,8.2,26,8,25.8,7.9s-0.3-0.4-0.4-0.6C25.3,7,25.1,6.8,25,6.5
			c-0.2-0.2-0.3-0.5-0.5-0.7c-0.2-0.2-0.3-0.4-0.4-0.6s-0.2-0.3-0.3-0.4c-0.2-0.3-0.3-0.6-0.4-0.9c-0.1-0.3-0.1-0.6-0.2-0.9
			c0-0.3,0-0.6,0.1-0.9c0.1-0.3,0.2-0.5,0.3-0.8s0.4-0.4,0.6-0.6s0.5-0.2,0.9-0.3c0.3,0,0.6,0,0.9,0.2c0.3,0.1,0.5,0.3,0.7,0.5
			s0.4,0.4,0.5,0.7s0.2,0.4,0.3,0.6c0,0.1,0,0.2,0,0.2c0,0.1-0.1,0.1-0.1,0.2c-0.1,0-0.1,0.1-0.2,0.1s-0.1,0-0.2-0.1
			c0-0.1-0.1-0.2-0.2-0.4c-0.1-0.2-0.2-0.4-0.4-0.5s-0.3-0.3-0.5-0.5c-0.2-0.1-0.4-0.2-0.7-0.2c-0.4,0-0.7,0.2-1,0.4
			c-0.2,0.2-0.4,0.5-0.4,0.9c0,0.3,0,0.7,0.1,1c0.1,0.4,0.2,0.7,0.5,0.9l2.9,4.3c0.1,0.2,0.2,0.4,0.3,0.7s0.2,0.6,0.2,0.9
			c0,0.3,0.1,0.6,0,0.9c0,0.3-0.1,0.6-0.2,0.8c-0.1,0.3-0.3,0.5-0.5,0.6C27,12.9,26.7,13,26.4,13z"/>
		<path class="st14" d="M33.9,10.9c-0.1,0.1-0.2,0.2-0.3,0.2c-0.1,0-0.2,0-0.2,0c-0.1,0-0.1,0-0.2-0.1s-0.1-0.1,0-0.1l0-7.9
			c0-0.1,0-0.1,0.1-0.2c0.1-0.1,0.1-0.1,0.2-0.1c0.1,0,0.2,0,0.2,0s0.1,0.1,0.2,0.3l0,0.9c0.2-0.2,0.4-0.5,0.7-0.7
			c0.3-0.2,0.6-0.4,0.9-0.5c0.3-0.1,0.7-0.3,1-0.3c0.3-0.1,0.6-0.1,0.9,0c0.5,0.1,0.9,0.3,1.3,0.6c0.3,0.3,0.5,0.7,0.7,1.1
			c0.1,0.4,0.2,0.9,0.1,1.4c-0.1,0.5-0.2,1-0.5,1.4s-0.6,0.8-1,1.2c-0.4,0.3-1,0.6-1.6,0.7c-0.6,0-1.1-0.1-1.5-0.2
			c-0.4-0.1-0.7-0.4-0.9-0.7L33.9,10.9z M37.2,3c-0.3,0-0.6,0-0.9,0s-0.6,0.2-1,0.4c-0.3,0.2-0.6,0.4-0.9,0.7
			c-0.3,0.3-0.5,0.6-0.6,1L34,6.7c0.2,0.5,0.4,0.8,0.9,1.1c0.4,0.3,0.9,0.4,1.6,0.3c0.5-0.1,0.9-0.3,1.2-0.6c0.3-0.3,0.6-0.6,0.8-1
			c0.2-0.4,0.3-0.7,0.4-1.1c0-0.4,0-0.8-0.1-1.1c-0.1-0.3-0.3-0.6-0.5-0.8S37.6,3.1,37.2,3z"/>
		<path class="st14" d="M41.6,9.9c-0.3-0.3-0.5-0.7-0.7-1.2c-0.2-0.5-0.3-1-0.3-1.6s0-1.1,0.1-1.7c0.1-0.6,0.3-1.1,0.5-1.5
			c0.2-0.4,0.5-0.8,0.8-1c0.3-0.3,0.6-0.4,0.9-0.5c0.3-0.1,0.6-0.1,1,0c0.3,0.1,0.7,0.3,1,0.6c0.3,0.2,0.5,0.5,0.7,0.8
			s0.3,0.7,0.5,1C46,5.2,46.1,5.6,46.1,6s0,0.8,0,1.2c0,0.4-0.1,0.8-0.2,1.1s-0.2,0.7-0.4,1c-0.3,0.5-0.5,0.8-0.9,1.1
			s-0.7,0.4-1,0.5c-0.4,0.1-0.7,0-1.1-0.1C42.2,10.5,41.9,10.3,41.6,9.9z M41.9,9.2c0.3,0.4,0.5,0.6,0.8,0.8
			c0.3,0.1,0.6,0.2,0.9,0.2c0.3,0,0.5-0.1,0.8-0.3c0.2-0.2,0.4-0.4,0.6-0.7c0.2-0.5,0.4-1,0.5-1.5s0.1-1.1,0-1.6
			c-0.1-0.5-0.2-1-0.3-1.5c-0.2-0.5-0.4-0.8-0.7-1.1c-0.2-0.2-0.4-0.3-0.6-0.4S43.3,3,43,3.1c-0.2,0.1-0.5,0.2-0.7,0.3
			S41.9,3.8,41.8,4c-0.2,0.4-0.3,0.8-0.4,1.3c-0.1,0.5-0.2,0.9-0.2,1.4c0,0.5,0,0.9,0.2,1.4C41.5,8.5,41.6,8.9,41.9,9.2z"/>
		<path class="st14" d="M47.9,10.9c0,0.1-0.1,0.1-0.1,0.2s-0.1,0.1-0.2,0.1c-0.1,0-0.2,0-0.2,0c-0.1,0-0.1-0.1-0.1-0.1l-0.1-7.7
			c0.1-0.1,0.1-0.1,0.2-0.2s0.2-0.1,0.2-0.1c0.1,0,0.1,0,0.2,0.1c0,0,0.1,0.1,0.1,0.2l0,0.7c0.5-0.3,1.1-0.5,1.6-0.7
			c0.5-0.2,0.9-0.3,1.3-0.3c0.4,0,0.7,0.1,1,0.3c0.3,0.2,0.5,0.6,0.7,1.1c0,0.1,0,0.2,0,0.3c0,0.1-0.1,0.2-0.2,0.2
			C52.2,5,52.1,5,52,5c-0.1,0-0.1-0.1-0.1-0.2c-0.1-0.5-0.4-0.8-0.6-0.9c-0.3-0.1-0.6-0.2-1-0.1S49.5,4,49.1,4.2
			c-0.4,0.2-0.8,0.5-1.3,0.8L47.9,10.9z"/>
		<path class="st15" d="M63.3,9.9c0,0.1,0,0.2-0.1,0.3c-0.1,0.1-0.1,0.1-0.2,0.1c-0.1,0-0.1,0-0.2,0c-0.1,0-0.1-0.1-0.2-0.2L62.3,8
			c-0.2,0.3-0.4,0.6-0.6,0.9c-0.2,0.3-0.5,0.6-0.8,0.9c-0.3,0.3-0.6,0.5-1,0.7c-0.4,0.2-0.7,0.3-1.1,0.3c-0.2,0-0.4-0.1-0.6-0.2
			s-0.3-0.2-0.4-0.4c-0.1-0.2-0.2-0.4-0.3-0.6c-0.1-0.2-0.1-0.4-0.1-0.7c0-0.5,0.1-1,0.2-1.5c0.1-0.5,0.2-1,0.4-1.5
			c0.1-0.5,0.3-1,0.5-1.5c0.2-0.5,0.3-1,0.5-1.5c0-0.1,0.1-0.2,0.1-0.3c0.1-0.1,0.2-0.1,0.3-0.1s0.2,0,0.3,0.1
			c0.1,0.1,0.1,0.1,0.1,0.3c-0.1,0.3-0.2,0.7-0.3,1.1c-0.2,0.4-0.3,0.9-0.5,1.4c-0.2,0.5-0.3,1-0.5,1.5c-0.1,0.5-0.2,1-0.3,1.4
			c0,0.4,0,0.8,0,1.2c0.1,0.3,0.2,0.6,0.5,0.7c0.4,0,0.8-0.1,1.1-0.4c0.4-0.2,0.7-0.5,1-0.9c0.3-0.4,0.6-0.7,0.8-1.1
			s0.4-0.8,0.6-1.1c0-0.6-0.1-1.1-0.1-1.5s0-0.8-0.1-1s0-0.5,0-0.7s0-0.3,0-0.5c0-0.1,0-0.2,0.1-0.3s0.1-0.1,0.2-0.1
			c0.1,0,0.2,0,0.2,0.1s0.1,0.2,0.1,0.4c0.1,0.6,0.1,1.2,0.1,1.7c0,0.6,0.1,1.2,0.1,1.8C63,7,63,7.6,63.1,8.2
			C63.1,8.7,63.2,9.3,63.3,9.9z"/>
		<path class="st15" d="M69.9,2.4c0.1,0.4,0.2,0.8,0.3,1.3c0.1,0.5,0.3,1,0.4,1.5c0.1,0.5,0.3,1,0.5,1.6c0.2,0.5,0.3,1,0.5,1.5
			c0.2,0.5,0.3,0.9,0.4,1.4s0.2,0.8,0.3,1.1c0,0.1-0.1,0.1-0.1,0.2c-0.1,0.1-0.2,0.1-0.2,0.1c-0.1,0-0.2,0-0.2,0
			c-0.1,0-0.1-0.1-0.1-0.1l-2.1-7.3l-0.9,4.2c0,0.1,0,0.3-0.1,0.4c-0.1,0.1-0.2,0.2-0.3,0.2c-0.1,0-0.2,0-0.3-0.1
			c-0.1-0.1-0.2-0.2-0.2-0.4l-1.1-4c0,0-0.1,0.2-0.1,0.4c-0.1,0.2-0.1,0.5-0.2,0.8c-0.1,0.3-0.2,0.6-0.3,1c-0.1,0.4-0.2,0.8-0.3,1.2
			c-0.1,0.4-0.2,0.8-0.3,1.2c-0.1,0.4-0.2,0.8-0.3,1.1s-0.1,0.6-0.2,0.9c-0.1,0.2-0.1,0.4-0.1,0.5c0,0.1-0.1,0.1-0.2,0.1
			c-0.1,0-0.1,0-0.2,0c-0.1,0-0.1,0-0.2-0.1c-0.1,0-0.1-0.1-0.2-0.1l2.2-8.3c0.1-0.1,0.2-0.2,0.3-0.2c0.1,0,0.1,0,0.2,0
			c0.1,0,0.1,0.1,0.2,0.1c0,0.1,0.1,0.1,0.1,0.2L68,6.7l0.9-4.2c0.1-0.1,0.2-0.2,0.2-0.2c0.1-0.1,0.1-0.1,0.2-0.1c0.1,0,0.2,0,0.2,0
			C69.7,2.2,69.8,2.3,69.9,2.4z"/>
		<path class="st13" d="M80.4,13c-0.2,0-0.4,0-0.7-0.1s-0.4-0.2-0.6-0.3c-0.2-0.1-0.4-0.3-0.5-0.4c-0.2-0.2-0.3-0.4-0.4-0.6
			c0-0.1,0-0.3,0-0.3c0-0.1,0.1-0.2,0.2-0.2c0.1-0.1,0.1-0.1,0.2-0.1c0.1,0,0.1,0,0.2,0.1c0.1,0.1,0.2,0.2,0.3,0.3s0.2,0.3,0.3,0.4
			s0.3,0.2,0.5,0.3c0.2,0.1,0.4,0.1,0.7,0.1c0.4-0.2,0.6-0.5,0.7-0.8c0.1-0.3,0.1-0.7,0-1.1s-0.2-0.8-0.4-1.1
			c-0.2-0.4-0.4-0.7-0.6-1C80,8.2,79.9,8,79.8,7.9s-0.3-0.4-0.4-0.6c-0.1-0.2-0.3-0.5-0.5-0.7c-0.2-0.2-0.3-0.5-0.5-0.7
			c-0.2-0.2-0.3-0.4-0.4-0.6s-0.2-0.3-0.3-0.4c-0.2-0.3-0.3-0.6-0.4-0.9c-0.1-0.3-0.1-0.6-0.2-0.9c0-0.3,0-0.6,0.1-0.9
			s0.2-0.5,0.3-0.8c0.2-0.2,0.4-0.4,0.6-0.6c0.2-0.1,0.5-0.2,0.9-0.3c0.3,0,0.6,0,0.9,0.2c0.3,0.1,0.5,0.3,0.7,0.5s0.4,0.4,0.5,0.7
			c0.1,0.2,0.2,0.4,0.3,0.6c0,0.1,0,0.2,0,0.2c0,0.1-0.1,0.1-0.1,0.2c-0.1,0-0.1,0.1-0.2,0.1S81,2.8,81,2.8c0-0.1-0.1-0.2-0.2-0.4
			S80.6,2,80.4,1.8s-0.3-0.3-0.5-0.5c-0.2-0.1-0.4-0.2-0.7-0.2c-0.4,0-0.7,0.2-1,0.4c-0.2,0.2-0.4,0.5-0.4,0.9c0,0.3,0,0.7,0.1,1
			c0.1,0.4,0.2,0.7,0.5,0.9l2.9,4.3c0.1,0.2,0.2,0.4,0.3,0.7c0.1,0.3,0.2,0.6,0.2,0.9s0.1,0.6,0,0.9c0,0.3-0.1,0.6-0.2,0.8
			s-0.3,0.5-0.5,0.6S80.7,13,80.4,13z"/>
		<path class="st13" d="M83.4,9.9c-0.3-0.3-0.5-0.7-0.7-1.2s-0.3-1-0.3-1.6c0-0.6,0-1.1,0.1-1.7C82.6,4.9,82.7,4.4,83,4
			c0.2-0.4,0.5-0.8,0.8-1s0.6-0.4,0.9-0.5c0.3-0.1,0.6-0.1,1,0s0.7,0.3,1,0.6c0.3,0.2,0.5,0.5,0.7,0.8c0.2,0.3,0.3,0.7,0.5,1
			C87.9,5.2,87.9,5.6,88,6s0,0.8,0,1.2c0,0.4-0.1,0.8-0.2,1.1c-0.1,0.4-0.2,0.7-0.4,1c-0.3,0.5-0.5,0.8-0.9,1.1s-0.7,0.4-1,0.5
			c-0.4,0.1-0.7,0-1.1-0.1C84.1,10.5,83.7,10.3,83.4,9.9z M83.7,9.2c0.3,0.4,0.5,0.6,0.8,0.8c0.3,0.1,0.6,0.2,0.9,0.2
			c0.3,0,0.5-0.1,0.8-0.3c0.2-0.2,0.4-0.4,0.6-0.7c0.2-0.5,0.4-1,0.5-1.5s0.1-1.1,0-1.6c-0.1-0.5-0.2-1-0.3-1.5
			c-0.2-0.5-0.4-0.8-0.7-1.1c-0.2-0.2-0.4-0.3-0.6-0.4c-0.2-0.1-0.5-0.1-0.7,0s-0.5,0.2-0.7,0.3S83.7,3.8,83.6,4
			c-0.2,0.4-0.3,0.8-0.4,1.3C83.1,5.8,83,6.2,83,6.7c0,0.5,0,0.9,0.2,1.4C83.3,8.5,83.5,8.9,83.7,9.2z"/>
		<path class="st13" d="M89.7,10.9c0,0.1-0.1,0.1-0.1,0.2s-0.1,0.1-0.2,0.1c-0.1,0-0.2,0-0.2,0C89.1,11.1,89,11,89,11l-0.1-7.7
			c0.1-0.1,0.1-0.1,0.2-0.2s0.2-0.1,0.2-0.1s0.1,0,0.2,0.1c0,0,0.1,0.1,0.1,0.2l0,0.7c0.5-0.3,1.1-0.5,1.6-0.7
			c0.5-0.2,0.9-0.3,1.3-0.3c0.4,0,0.7,0.1,1,0.3s0.5,0.6,0.7,1.1c0,0.1,0,0.2,0,0.3c0,0.1-0.1,0.2-0.2,0.2C94,5,93.9,5,93.9,5
			c-0.1,0-0.1-0.1-0.1-0.2c-0.1-0.5-0.4-0.8-0.6-0.9c-0.3-0.1-0.6-0.2-1-0.1S91.3,4,90.9,4.2c-0.4,0.2-0.8,0.5-1.3,0.8L89.7,10.9z"
			/>
		<path class="st13" d="M95.7,10.9c0,0.1-0.1,0.1-0.1,0.2s-0.1,0.1-0.2,0.1c-0.1,0-0.2,0-0.2,0C95.1,11.1,95,11,95,11l-0.1-7.7
			c0.1-0.1,0.1-0.1,0.2-0.2s0.2-0.1,0.2-0.1s0.1,0,0.2,0.1c0,0,0.1,0.1,0.1,0.2l0,0.7c0.5-0.3,1.1-0.5,1.6-0.7
			c0.5-0.2,0.9-0.3,1.3-0.3c0.4,0,0.7,0.1,1,0.3s0.5,0.6,0.7,1.1c0,0.1,0,0.2,0,0.3c0,0.1-0.1,0.2-0.2,0.2C100,5,99.9,5,99.9,5
			c-0.1,0-0.1-0.1-0.1-0.2c-0.1-0.5-0.4-0.8-0.6-0.9c-0.3-0.1-0.6-0.2-1-0.1S97.3,4,96.9,4.2c-0.4,0.2-0.8,0.5-1.3,0.8L95.7,10.9z"
			/>
		<path class="st13" d="M101.4,3.6c-0.1,0-0.3,0-0.4-0.1c-0.1-0.1-0.2-0.2-0.2-0.3c0-0.1,0-0.2,0-0.3c0-0.1,0.2-0.2,0.3-0.2
			c0.2,0,0.3,0,0.5,0.1s0.2,0.2,0.2,0.3c0,0.1,0,0.2-0.1,0.3C101.8,3.5,101.6,3.5,101.4,3.6z M101.8,10.6c-0.1,0.2-0.2,0.2-0.3,0.3
			c-0.1,0-0.2,0-0.2,0c-0.1,0-0.2-0.1-0.2-0.2V5.1c0-0.1,0-0.2,0.1-0.2c0.1-0.1,0.2-0.1,0.2-0.1c0.1,0,0.2,0,0.2,0.1
			c0.1,0,0.1,0.1,0.1,0.2V10.6z"/>
		<path class="st13" d="M106.1,13c-0.2,0-0.4,0-0.7-0.1s-0.4-0.2-0.6-0.3c-0.2-0.1-0.4-0.3-0.5-0.4c-0.2-0.2-0.3-0.4-0.4-0.6
			c0-0.1,0-0.3,0-0.3c0-0.1,0.1-0.2,0.2-0.2c0.1-0.1,0.1-0.1,0.2-0.1c0.1,0,0.1,0,0.2,0.1c0.1,0.1,0.2,0.2,0.3,0.3s0.2,0.3,0.3,0.4
			s0.3,0.2,0.5,0.3c0.2,0.1,0.4,0.1,0.7,0.1c0.4-0.2,0.6-0.5,0.7-0.8c0.1-0.3,0.1-0.7,0-1.1s-0.2-0.8-0.4-1.1
			c-0.2-0.4-0.4-0.7-0.6-1c-0.1-0.1-0.1-0.2-0.3-0.4s-0.3-0.4-0.4-0.6c-0.1-0.2-0.3-0.5-0.5-0.7c-0.2-0.2-0.3-0.5-0.5-0.7
			c-0.2-0.2-0.3-0.4-0.4-0.6s-0.2-0.3-0.3-0.4c-0.2-0.3-0.3-0.6-0.4-0.9C103,3.6,103,3.3,103,3c0-0.3,0-0.6,0.1-0.9s0.2-0.5,0.3-0.8
			c0.2-0.2,0.4-0.4,0.6-0.6c0.2-0.1,0.5-0.2,0.9-0.3c0.3,0,0.6,0,0.9,0.2c0.3,0.1,0.5,0.3,0.7,0.5s0.4,0.4,0.5,0.7
			c0.1,0.2,0.2,0.4,0.3,0.6c0,0.1,0,0.2,0,0.2c0,0.1-0.1,0.1-0.1,0.2c-0.1,0-0.1,0.1-0.2,0.1s-0.1,0-0.2-0.1c0-0.1-0.1-0.2-0.2-0.4
			s-0.2-0.4-0.4-0.5s-0.3-0.3-0.5-0.5c-0.2-0.1-0.4-0.2-0.7-0.2c-0.4,0-0.7,0.2-1,0.4c-0.2,0.2-0.4,0.5-0.4,0.9c0,0.3,0,0.7,0.1,1
			c0.1,0.4,0.2,0.7,0.5,0.9l2.9,4.3c0.1,0.2,0.2,0.4,0.3,0.7c0.1,0.3,0.2,0.6,0.2,0.9s0.1,0.6,0,0.9c0,0.3-0.1,0.6-0.2,0.8
			s-0.3,0.5-0.5,0.6S106.4,13,106.1,13z"/>
		<path class="st13" d="M109.1,9.9c-0.3-0.3-0.5-0.7-0.7-1.2s-0.3-1-0.3-1.6c0-0.6,0-1.1,0.1-1.7c0.1-0.6,0.3-1.1,0.5-1.5
			c0.2-0.4,0.5-0.8,0.8-1s0.6-0.4,0.9-0.5c0.3-0.1,0.6-0.1,1,0s0.7,0.3,1,0.6c0.3,0.2,0.5,0.5,0.7,0.8c0.2,0.3,0.3,0.7,0.5,1
			c0.1,0.4,0.2,0.8,0.2,1.2s0,0.8,0,1.2c0,0.4-0.1,0.8-0.2,1.1c-0.1,0.4-0.2,0.7-0.4,1c-0.3,0.5-0.5,0.8-0.9,1.1s-0.7,0.4-1,0.5
			c-0.4,0.1-0.7,0-1.1-0.1C109.8,10.5,109.4,10.3,109.1,9.9z M109.4,9.2c0.3,0.4,0.5,0.6,0.8,0.8c0.3,0.1,0.6,0.2,0.9,0.2
			c0.3,0,0.5-0.1,0.8-0.3c0.2-0.2,0.4-0.4,0.6-0.7c0.2-0.5,0.4-1,0.5-1.5s0.1-1.1,0-1.6c-0.1-0.5-0.2-1-0.3-1.5
			c-0.2-0.5-0.4-0.8-0.7-1.1c-0.2-0.2-0.4-0.3-0.6-0.4c-0.2-0.1-0.5-0.1-0.7,0s-0.5,0.2-0.7,0.3s-0.4,0.4-0.5,0.6
			c-0.2,0.4-0.3,0.8-0.4,1.3c-0.1,0.5-0.2,0.9-0.2,1.4c0,0.5,0,0.9,0.2,1.4C109,8.5,109.2,8.9,109.4,9.2z"/>
	</g>
</g>
<g>
</g>
<g>
</g>
<g>
</g>
<g>
</g>
<g>
</g>
<g>
</g>
<g>
</g>
<g>
</g>
<g>
</g>
<g>
</g>
<g>
</g>
<g>
</g>
<g>
</g>
<g>
</g>
<g>
</g>
</svg>
