<?xml version="1.0" encoding="utf-8"?>
<!-- Generator: Adobe Illustrator 22.0.1, SVG Export Plug-In . SVG Version: 6.00 Build 0)  -->
<svg version="1.1" id="Camada_1" xmlns="http://www.w3.org/2000/svg" xmlns:xlink="http://www.w3.org/1999/xlink" x="0px" y="0px"
	 viewBox="0 0 448 671" style="enable-background:new 0 0 448 671;" xml:space="preserve">
<style type="text/css">
	.st0{fill:none;}
	.st1{font-family:'ArialMT';}
	.st2{font-size:12px;}
	.st3{fill:none;stroke:#000000;stroke-width:0.5836;stroke-miterlimit:10;}
	.st4{fill:none;stroke:#000000;stroke-width:0.6864;stroke-miterlimit:10;}
	.st5{fill:none;stroke:#000000;stroke-width:0.6478;stroke-miterlimit:10;}
	.st6{fill:none;stroke:#000000;stroke-width:0.686;stroke-miterlimit:10;}
	.st7{fill:none;stroke:#000000;stroke-width:0.5;stroke-miterlimit:10;}
</style>
<polygon class="st0" points="1018.7,-32.5 1032.1,-32.5 1032.1,-32.5 "/>
<g>
	<text transform="matrix(1 0 0 1 175.1094 23.2842)" class="st1 st2">Computador Windows</text>
	<text transform="matrix(1 0 0 1 177.1094 37.6842)" class="st1 st2">não consegue acessar</text>
	<text transform="matrix(1 0 0 1 184.2094 52.0842)" class="st1 st2">um serviço de rede</text>
	<g>
		
			<rect x="193.1" y="114.8" transform="matrix(0.7071 -0.7071 0.7071 0.7071 -37.9256 202.2462)" class="st3" width="64.2" height="64.2"/>
		
			<rect x="280.1" y="188.8" transform="matrix(0.7071 -0.7071 0.7071 0.7071 -64.7691 285.4382)" class="st3" width="64.2" height="64.2"/>
		
			<rect x="218.1" y="259.8" transform="matrix(0.7071 -0.7071 0.7071 0.7071 -133.1328 262.3936)" class="st3" width="64.2" height="64.2"/>
		
			<rect x="209.1" y="403.8" transform="matrix(0.7071 -0.7071 0.7071 0.7071 -237.5912 298.2068)" class="st3" width="64.2" height="64.2"/>
		
			<rect x="131.4" y="474.1" transform="matrix(0.7071 -0.7071 0.7071 0.7071 -312.3693 269.535)" class="st4" width="75.5" height="75.5"/>
		
			<rect x="125.5" y="328.2" transform="matrix(0.7071 -0.7071 0.7071 0.7071 -210.0617 220.5295)" class="st5" width="71.3" height="71.3"/>
		<path class="st3" d="M177,213.8H86.4c-8.1,0-14.7-6.6-14.7-14.7v-8.6c0-8.1,6.6-14.7,14.7-14.7H177c8.1,0,14.7,6.6,14.7,14.7v8.6
			C191.7,207.2,185.1,213.8,177,213.8z"/>
		<path class="st3" d="M400.2,326.8h-41c-15.7,0-28.5-12.8-28.5-28.5l0,0c0-15.7,12.8-28.5,28.5-28.5h41c15.7,0,28.5,12.8,28.5,28.5
			l0,0C428.7,314,415.9,326.8,400.2,326.8z"/>
		<path class="st3" d="M340.2,390.8h-45c-14.6,0-26.5-11.9-26.5-26.5l0,0c0-14.6,11.9-26.5,26.5-26.5h45c14.6,0,26.5,11.9,26.5,26.5
			l0,0C366.7,378.9,354.8,390.8,340.2,390.8z"/>
		<path class="st3" d="M334.7,520.8h-44c-14.9,0-27-12.1-27-27l0,0c0-14.9,12.1-27,27-27h44c14.9,0,27,12.1,27,27l0,0
			C361.7,508.7,349.6,520.8,334.7,520.8z"/>
		<path class="st3" d="M124.2,618.8h-58c-17.4,0-31.5-14.1-31.5-31.5l0,0c0-17.4,14.1-31.5,31.5-31.5h58c17.4,0,31.5,14.1,31.5,31.5
			l0,0C155.7,604.7,141.6,618.8,124.2,618.8z"/>
		<path class="st3" d="M267.2,646.8h-35c-24.6,0-44.5-19.9-44.5-44.5l0,0c0-24.6,19.9-44.5,44.5-44.5h35c24.6,0,44.5,19.9,44.5,44.5
			l0,0C311.7,626.8,291.8,646.8,267.2,646.8z"/>
		<g>
			<g>
				<polyline class="st6" points="179.7,146.8 131.7,146.8 132.1,170.8 				"/>
				<g>
					<polygon points="128.7,169.9 132.2,175.8 135.5,169.8 					"/>
				</g>
			</g>
		</g>
		<g>
			<g>
				<polyline class="st6" points="267.7,220.8 250.7,220.8 250.7,241.8 				"/>
				<g>
					<polygon points="247.3,240.8 250.7,246.8 254.1,240.8 					"/>
				</g>
			</g>
		</g>
		<g>
			<g>
				<polyline class="st6" points="271.2,146.8 311.7,146.8 311.7,170.8 				"/>
				<g>
					<polygon points="308.3,169.8 311.7,175.8 315.1,169.8 					"/>
				</g>
			</g>
		</g>
		<g>
			<g>
				<polyline class="st6" points="357.7,220.8 378.7,220.8 378.7,264.3 				"/>
				<g>
					<polygon points="375.3,263.3 378.7,269.3 382.1,263.3 					"/>
				</g>
			</g>
		</g>
		<g>
			<g>
				<polyline class="st6" points="204.7,291.8 162.7,291.8 162.7,308.8 				"/>
				<g>
					<polygon points="159.3,307.8 162.7,313.8 166.1,307.8 					"/>
				</g>
			</g>
		</g>
		<g>
			<g>
				<polyline class="st6" points="295.7,291.8 317.7,291.8 317.7,332.8 				"/>
				<g>
					<polygon points="314.3,331.8 317.7,337.8 321.1,331.8 					"/>
				</g>
			</g>
		</g>
		<g>
			<g>
				<polyline class="st6" points="110.7,363.8 81.7,363.8 81.7,385.8 				"/>
				<g>
					<polygon points="78.3,384.8 81.7,390.8 85.1,384.8 					"/>
				</g>
			</g>
		</g>
		<g>
			<g>
				<polyline class="st6" points="211.7,363.8 239.7,363.8 239.7,385.8 				"/>
				<g>
					<polygon points="236.3,384.8 239.7,390.8 243.1,384.8 					"/>
				</g>
			</g>
		</g>
		<g>
			<g>
				<polyline class="st6" points="195.7,435.8 168.7,435.8 168.7,453.8 				"/>
				<g>
					<polygon points="165.3,452.8 168.7,458.8 172.1,452.8 					"/>
				</g>
			</g>
		</g>
		<g>
			<g>
				<polyline class="st6" points="286.7,435.8 311.7,435.8 311.7,461.8 				"/>
				<g>
					<polygon points="308.3,460.8 311.7,466.8 315.1,460.8 					"/>
				</g>
			</g>
		</g>
		<g>
			<g>
				<polyline class="st6" points="115.7,511.8 95.7,511.8 95.7,550.8 				"/>
				<g>
					<polygon points="92.3,549.8 95.7,555.8 99.1,549.8 					"/>
				</g>
			</g>
		</g>
		<g>
			<g>
				<polyline class="st6" points="222.7,511.8 249.7,511.8 249.7,552.8 				"/>
				<g>
					<polygon points="246.3,551.8 249.7,557.8 253.1,551.8 					"/>
				</g>
			</g>
		</g>
		<polygon class="st6" points="36.7,393.8 125.7,393.8 125.7,437.8 81.7,482.8 34.7,437.8 		"/>
		<text transform="matrix(1 0 0 1 201.1831 135.7598)" class="st1 st2">Novo hub</text>
		<text transform="matrix(1 0 0 1 197.9831 150.1598)" class="st1 st2">adicionado</text>
		<text transform="matrix(1 0 0 1 208.8831 164.5598)" class="st1 st2">à LAN?</text>
		<text transform="matrix(1 0 0 1 73.8877 190.5098)" class="st1 st2">Conferir o cabeamento</text>
		<text transform="matrix(1 0 0 1 85.1877 204.9098)" class="st1 st2">crossover da porta</text>
		<text transform="matrix(1 0 0 1 287.0352 217.0098)" class="st1 st2">Luz do link</text>
		<text transform="matrix(1 0 0 1 293.1352 231.4098)" class="st1 st2">acende?</text>
		<text transform="matrix(1 0 0 1 228.187 279.7598)" class="st1 st2">A config.</text>
		<text transform="matrix(1 0 0 1 223.387 294.1598)" class="st1 st2">de rede foi</text>
		<text transform="matrix(1 0 0 1 227.787 308.5598)" class="st1 st2">copiada?</text>
		<text transform="matrix(1 0 0 1 137.7471 346.5098)" class="st1 st2">Problema</text>
		<text transform="matrix(1 0 0 1 123.6471 360.9098)" class="st1 st2">do gerenciador</text>
		<text transform="matrix(1 0 0 1 124.6471 375.3098)" class="st1 st2">de dispositivo?</text>
		<text transform="matrix(1 0 0 1 53.1792 415.2598)" class="st1 st2">Seguir com</text>
		<text transform="matrix(1 0 0 1 49.5792 429.6598)" class="st1 st2">resolução de</text>
		<text transform="matrix(1 0 0 1 59.8792 444.0598)" class="st1 st2">conflitos</text>
		<text transform="matrix(1 0 0 1 215.895 426.5098)" class="st1 st2">Testou um</text>
		<text transform="matrix(1 0 0 1 207.895 440.9098)" class="st1 st2">cabo em bom</text>
		<text transform="matrix(1 0 0 1 223.095 455.3098)" class="st1 st2">estado?</text>
		<text transform="matrix(1 0 0 1 157.3491 499.2598)" class="st1 st2">O PC</text>
		<text transform="matrix(1 0 0 1 139.5491 513.6598)" class="st1 st2">funciona no</text>
		<text transform="matrix(1 0 0 1 141.2491 528.0598)" class="st1 st2">local novo?</text>
		<text transform="matrix(1 0 0 1 274.7153 482.7598)" class="st1 st2">Trocar cabo ou</text>
		<text transform="matrix(1 0 0 1 285.6153 497.1598)" class="st1 st2">conferir os</text>
		<text transform="matrix(1 0 0 1 284.3153 511.5598)" class="st1 st2">conectores</text>
		<text transform="matrix(1 0 0 1 227.1172 577.5098)" class="st1 st2">Reiniciar.</text>
		<text transform="matrix(1 0 0 1 192.2172 591.9098)" class="st1 st2">Configuração incorreta</text>
		<text transform="matrix(1 0 0 1 212.4172 606.3098)" class="st1 st2">de software ou</text>
		<text transform="matrix(1 0 0 1 203.3172 620.7098)" class="st1 st2">adaptador de rede</text>
		<text transform="matrix(1 0 0 1 236.7172 635.1098)" class="st1 st2">ruim.</text>
		<text transform="matrix(1 0 0 1 54.0254 574.0098)" class="st1 st2">Falha nos cabos,</text>
		<text transform="matrix(1 0 0 1 47.2254 588.4098)" class="st1 st2">conexões ou porta </text>
		<text transform="matrix(1 0 0 1 75.7254 602.8098)" class="st1 st2">do hub.</text>
		<text transform="matrix(1 0 0 1 344.5127 286.9263)" class="st1 st2">Camada física</text>
		<text transform="matrix(1 0 0 1 361.2127 301.3263)" class="st1 st2">(cabos,</text>
		<text transform="matrix(1 0 0 1 347.5127 315.7263)" class="st1 st2">dispositivos)</text>
		<text transform="matrix(1 0 0 1 283.4854 348.5933)" class="st1 st2">Clonar config.</text>
		<text transform="matrix(1 0 0 1 285.1854 361.5933)" class="st1 st2">que funciona</text>
		<text transform="matrix(1 0 0 1 296.6854 374.5933)" class="st1 st2">de outro</text>
		<text transform="matrix(1 0 0 1 286.9854 387.5933)" class="st1 st2">computador</text>
		<text transform="matrix(1 0 0 1 150.1445 141.2598)" class="st1 st2">Sim</text>
		<text transform="matrix(1 0 0 1 281.3765 141.2598)" class="st1 st2">Não</text>
		<text transform="matrix(1 0 0 1 247.1445 215.2598)" class="st1 st2">Sim</text>
		<text transform="matrix(1 0 0 1 358.3765 215.2598)" class="st1 st2">Não</text>
		<text transform="matrix(1 0 0 1 177.1445 287.2598)" class="st1 st2">Sim</text>
		<text transform="matrix(1 0 0 1 299.3765 287.2598)" class="st1 st2">Não</text>
		<text transform="matrix(1 0 0 1 86.1445 359.2598)" class="st1 st2">Sim</text>
		<text transform="matrix(1 0 0 1 214.3765 359.2598)" class="st1 st2">Não</text>
		<text transform="matrix(1 0 0 1 172.1445 431.2598)" class="st1 st2">Sim</text>
		<text transform="matrix(1 0 0 1 290.3765 431.2598)" class="st1 st2">Não</text>
		<text transform="matrix(1 0 0 1 93.1445 506.2598)" class="st1 st2">Sim</text>
		<text transform="matrix(1 0 0 1 221.3765 506.2598)" class="st1 st2">Não</text>
	</g>
	<g>
		<line class="st0" x1="225" y1="57" x2="225" y2="101"/>
		<g>
			<line class="st7" x1="225" y1="57" x2="225" y2="97.4"/>
			<g>
				<polygon points="222.5,96.7 225,101 227.5,96.7 				"/>
			</g>
		</g>
	</g>
</g>
</svg>
